<?xml version='1.0'?>
<svg xmlns="http://www.w3.org/2000/svg" xml:id="D0261323-A980-46FE-A059-12ED498DB67F" version="1.2" baseProfile="tiny" snapshotTime="910.9378430247307">
  <title>Drawing 2</title>
  <jabberPad:drawing xmlns:jabberPad="http://jabberpad.net/jabberpad" creationDate="2010-04-02T21:33:59Z"/>
  <polyline xml:id="65344057-2B53-4C97-96FF-69BE0B821D7C" fill="none" stroke="maroon" stroke-width="4" points="428,186 427,187 423,191 418,198 411,207 395,225 385,237 376,249 362,265 354,273 346,280 339,287 327,299 322,305 318,310 312,319 310,322 307,328 304,335 297,348 293,356 291,362 286,369 286,373 291,380 298,392 315,414 327,431 337,446 346,456 360,478 371,491 383,505 408,529 417,539 423,544 424,544 425,545 425,546 426,546 426,547 427,547 428,548 432,553 434,555 436,557 436,558 437,558 438,561 439,562 439,563 441,566 443,569 445,572 448,576 451,580 452,581 452,582 455,581 459,574 468,563 485,545 494,534 502,524 516,506 522,497 529,491 536,484 543,478 547,472 552,466 556,459 559,451 560,449 562,445 564,441 565,438 568,430 569,427 570,422 573,415 575,411 576,407 580,400 581,398 583,396 585,394 586,393 587,392 587,391 587,389 585,386 580,380 575,372 564,357 557,349 550,340 541,330 538,327 535,323 530,315 527,310 522,303 517,296 511,285 508,280 506,275 503,266 501,261 499,257 496,248 495,243 493,238 491,233 489,229 488,225 486,220 484,216 484,215 484,213 483,213 482,211 480,209 479,208 478,207 472,201 471,200 469,199 465,195 463,193 461,192 459,191 456,189 454,187 451,186 449,184 444,182 443,180 441,180 440,179 439,178 438,177 437,177 436,176 435,176 435,175 434,175 433,175 432,176 431,177 430,177 428,179 428,180 427,180 427,181 427,182 426,182 426,183 426,184 425,185 425,186 425,187"/>
  <polyline xml:id="FF8D214C-1DD1-4A25-A317-3AA7A8C2355C" visibility="hidden" fill="none" stroke="yellow" stroke-width="4" points="312,325 313,326 315,332 319,340 326,351 343,375 354,391 366,403 377,414 393,427 401,434 409,441 418,450 424,455 430,459 440,467 446,472 453,478 461,483 470,490 476,494 480,497 489,503 491,505 492,506">
    <set attributeName="visibility" begin="6.741644978523254" to="visible"/>
  </polyline>
  <polyline xml:id="859E51C8-4B69-4E35-BB70-687F9026CFDA" visibility="hidden" fill="none" stroke="yellow" stroke-width="4" points="357,274 357,275 359,279 363,285 367,291 383,315 391,327 399,337 411,352 418,360 425,369 431,376 440,388 446,393 449,397 457,404 460,407 462,409 468,416 472,420 475,424 479,429 485,435 489,440 493,445 499,451 502,454 505,457 510,462 512,464 512,465 514,466">
    <set attributeName="visibility" begin="9.021737992763519" to="visible"/>
  </polyline>
  <polyline xml:id="FE3ED906-A89E-4F9F-9B9B-2351C771A45C" visibility="hidden" fill="none" stroke="yellow" stroke-width="4" points="397,217 398,217 400,219 404,223 410,228 424,242 437,254 451,265 470,284 483,295 489,301 499,309 509,322 515,330 520,339 527,354 532,362 537,369 541,378 543,382 545,386 548,392 552,402 554,407 556,411 559,417 561,420 563,424 565,428 565,429 567,429 567,430">
    <set attributeName="visibility" begin="10.66193300485611" to="visible"/>
  </polyline>
  <polyline xml:id="3F4C219E-9AE5-4E05-94BD-A7C31F8EA60A" visibility="hidden" fill="none" stroke="purple" stroke-width="4" points="543,342 542,342 534,345 526,351 518,358 509,367 494,381 486,389 479,397 468,409 463,414 459,418 452,424 449,427 446,429 441,433 439,434 439,435 437,437 435,440 434,442 433,445 431,448 429,451 428,454 426,457 423,464 422,466 420,468 417,472 416,473 415,474 414,475 413,475 413,476 411,477 410,478 408,479 407,480 406,480 404,482 400,483 400,485 399,485 395,487 394,487 393,488 391,490 388,491 387,493 385,493 385,495 383,497 381,498">
    <set attributeName="visibility" begin="20.24640101194382" to="visible"/>
  </polyline>
  <polyline xml:id="09F8C25D-458E-4282-9362-2C38317AC711" visibility="hidden" fill="none" stroke="purple" stroke-width="4" points="503,260 500,261 498,263 494,266 488,272 482,278 479,282 471,291 466,296 461,301 456,306 443,316 435,324 425,332 412,338 402,346 392,353 384,360 372,370 366,377 361,384 353,393 348,397 346,400 345,400 343,403 343,404 341,405 340,405 338,407 336,409 333,412 331,414 329,416 329,417 327,417 325,420">
    <set attributeName="visibility" begin="22.24627101421356" to="visible"/>
  </polyline>
  <polyline xml:id="55E9B392-523C-4387-89E4-807A38BC7C0B" visibility="hidden" fill="none" stroke="purple" stroke-width="4" points="471,206 469,206 465,208 456,214 448,219 439,227 425,241 417,250 409,259 399,272 392,280 385,288 374,301 366,309 360,317 354,323 346,333 341,338 337,342 323,356 319,361 316,364 311,373 308,377 306,379 303,383">
    <set attributeName="visibility" begin="24.45462000370026" to="visible" dur="34.14404100179672"/>
  </polyline>
  <polyline xml:id="115F2D66-BAAD-4064-B7D8-B21111AB04EB" visibility="hidden" fill="none" stroke="navy" stroke-width="4" points="471,206 469,206 465,208 456,214 448,219 439,227 425,241 417,250 409,259 399,272 392,280 385,288 374,301 366,309 360,317 354,323 346,333 341,338 337,342 323,356 319,361 316,364 311,373 308,377 306,379 303,383">
    <set attributeName="visibility" begin="58.57991701364517" to="visible"/>
  </polyline>
  <polyline xml:id="8F20B7F2-8B99-41C2-919D-F0BBA2B25CAD" visibility="hidden" fill="none" stroke="purple" stroke-width="4" points="766,145 766,144 758,144 755,143 751,143 745,142 743,142 740,142 736,143 726,147 719,150 715,152 711,156 702,162 699,164 697,166 694,171 692,175 692,179 692,185 692,189 693,193 695,197 698,203 702,208 707,212 719,219 730,224 744,227 772,228 790,228 810,226 842,219 859,214 872,207 881,199 885,189 885,179 885,170 878,155 872,146 864,139 844,126 831,119 817,112 800,108 770,100 749,97 726,97 694,103 679,110 666,120 646,136 637,143 631,149 628,151 626,155 624,159 623,163 623,174 625,186 628,198 635,210 645,229 654,238 664,246 679,256 691,261 703,265 718,270 741,276 762,282 784,286 817,290 831,290 842,290 858,289 868,286 877,282 885,280 895,274 898,272 904,268 908,263 912,259 918,250 921,245 923,239 924,233 924,224 924,218 924,211 922,200 919,193 916,186 913,180 905,169 900,162 892,154 877,141 867,133 856,126 837,115 826,109 816,105 802,99 793,96 785,93 774,89 752,83 735,80 716,78 677,73 655,71 635,71 608,71 594,71 581,74 575,76 569,80 557,86 548,92 538,98 527,108 521,114 517,122 516,134 515,149 515,164 517,179 524,198 531,209 539,217 555,234 567,244 581,256 605,272 622,281 638,288 652,292 673,297 683,298 691,300 694,300 695,300">
    <set attributeName="visibility" begin="910.9378430247307" to="visible"/>
  </polyline>
</svg>
